<mxfile host="app.diagrams.net" agent="Mozilla/5.0 (Windows NT 10.0; Win64; x64; rv:131.0) Gecko/20100101 Firefox/131.0" version="24.7.17">
  <diagram id="F8j4rF9d0ZWt-DiKnH3v" name="Page-1">
    <mxGraphModel dx="1873" dy="1053" grid="1" gridSize="10" guides="1" tooltips="1" connect="1" arrows="1" fold="1" page="1" pageScale="1" pageWidth="2400" pageHeight="2400" math="0" shadow="0">
      <root>
        <mxCell id="0" />
        <mxCell id="1" parent="0" />
        <mxCell id="2" value="Fruta&#xa;" style="swimlane;fontStyle=3;align=center;verticalAlign=top;childLayout=stackLayout;horizontal=1;startSize=26;horizontalStack=0;resizeParent=1;resizeParentMax=0;resizeLast=0;collapsible=1;marginBottom=0;" parent="1" vertex="1">
          <mxGeometry x="395" y="287" width="190" height="106" as="geometry" />
        </mxCell>
        <mxCell id="3" value="# bichada: boolean" style="text;strokeColor=none;fillColor=none;align=left;verticalAlign=top;spacingLeft=4;spacingRight=4;overflow=hidden;rotatable=0;points=[[0,0.5],[1,0.5]];portConstraint=eastwest;" parent="2" vertex="1">
          <mxGeometry y="26" width="190" height="30" as="geometry" />
        </mxCell>
        <mxCell id="4" value="" style="line;strokeWidth=1;fillColor=none;align=left;verticalAlign=middle;spacingTop=-1;spacingLeft=3;spacingRight=3;rotatable=0;labelPosition=right;points=[];portConstraint=eastwest;strokeColor=inherit;" parent="2" vertex="1">
          <mxGeometry y="56" width="190" height="8" as="geometry" />
        </mxCell>
        <mxCell id="O7U8BIE5OUKYXOauDH32-203" value="" style="endArrow=none;html=1;rounded=0;entryX=0.5;entryY=1;entryDx=0;entryDy=0;" edge="1" parent="2" target="2">
          <mxGeometry width="50" height="50" relative="1" as="geometry">
            <mxPoint x="95" y="123" as="sourcePoint" />
            <mxPoint x="145" y="73" as="targetPoint" />
          </mxGeometry>
        </mxCell>
        <mxCell id="5" value="- abs buffar(Jogador): boolean&#xa;- nerfar(Jogador): boolean" style="text;strokeColor=none;fillColor=none;align=left;verticalAlign=top;spacingLeft=4;spacingRight=4;overflow=hidden;rotatable=0;points=[[0,0.5],[1,0.5]];portConstraint=eastwest;" parent="2" vertex="1">
          <mxGeometry y="64" width="190" height="42" as="geometry" />
        </mxCell>
        <mxCell id="6" value="elementoEstatico" style="swimlane;fontStyle=3;align=center;verticalAlign=top;childLayout=stackLayout;horizontal=1;startSize=26;horizontalStack=0;resizeParent=1;resizeParentMax=0;resizeLast=0;collapsible=1;marginBottom=0;" parent="1" vertex="1">
          <mxGeometry x="400" y="1360" width="160" height="86" as="geometry" />
        </mxCell>
        <mxCell id="7" value="+ " style="text;strokeColor=none;fillColor=none;align=left;verticalAlign=top;spacingLeft=4;spacingRight=4;overflow=hidden;rotatable=0;points=[[0,0.5],[1,0.5]];portConstraint=eastwest;" parent="6" vertex="1">
          <mxGeometry y="26" width="160" height="26" as="geometry" />
        </mxCell>
        <mxCell id="8" value="" style="line;strokeWidth=1;fillColor=none;align=left;verticalAlign=middle;spacingTop=-1;spacingLeft=3;spacingRight=3;rotatable=0;labelPosition=right;points=[];portConstraint=eastwest;strokeColor=inherit;" parent="6" vertex="1">
          <mxGeometry y="52" width="160" height="8" as="geometry" />
        </mxCell>
        <mxCell id="9" value="+ " style="text;strokeColor=none;fillColor=none;align=left;verticalAlign=top;spacingLeft=4;spacingRight=4;overflow=hidden;rotatable=0;points=[[0,0.5],[1,0.5]];portConstraint=eastwest;" parent="6" vertex="1">
          <mxGeometry y="60" width="160" height="26" as="geometry" />
        </mxCell>
        <mxCell id="169" value="" style="endArrow=none;dashed=1;html=1;dashPattern=1 3;strokeWidth=2;" parent="6" edge="1">
          <mxGeometry width="50" height="50" relative="1" as="geometry">
            <mxPoint x="130" as="sourcePoint" />
            <mxPoint x="130" y="-40" as="targetPoint" />
          </mxGeometry>
        </mxCell>
        <mxCell id="105" style="edgeStyle=none;html=1;entryX=1.011;entryY=0.265;entryDx=0;entryDy=0;entryPerimeter=0;" parent="1" source="10" target="92" edge="1">
          <mxGeometry relative="1" as="geometry" />
        </mxCell>
        <mxCell id="10" value="Jogador&#xa;" style="swimlane;fontStyle=1;align=center;verticalAlign=top;childLayout=stackLayout;horizontal=1;startSize=26;horizontalStack=0;resizeParent=1;resizeParentMax=0;resizeLast=0;collapsible=1;marginBottom=0;" parent="1" vertex="1">
          <mxGeometry x="395" y="700" width="260" height="490" as="geometry" />
        </mxCell>
        <mxCell id="11" value="- pontosMovimento: int&#xa;- mochila: Mochila&#xa;- pontosOuro: int&#xa;- estado: String&#xa;- buffForca: boolean&#xa;- buffAgilidade: boolean&#xa;- nerfBichada: boolean" style="text;strokeColor=none;fillColor=none;align=left;verticalAlign=top;spacingLeft=4;spacingRight=4;overflow=hidden;rotatable=0;points=[[0,0.5],[1,0.5]];portConstraint=eastwest;" parent="10" vertex="1">
          <mxGeometry y="26" width="260" height="114" as="geometry" />
        </mxCell>
        <mxCell id="12" value="" style="line;strokeWidth=1;fillColor=none;align=left;verticalAlign=middle;spacingTop=-1;spacingLeft=3;spacingRight=3;rotatable=0;labelPosition=right;points=[];portConstraint=eastwest;strokeColor=inherit;" parent="10" vertex="1">
          <mxGeometry y="140" width="260" height="8" as="geometry" />
        </mxCell>
        <mxCell id="13" value="+ Jogador(): Jogador&#xa;+ Jogador(String, int, int): Jogador&#xa;+ setPontosMovimentos(int): void &#xa;+ getPontosMovimentos(): int&#xa;+ setPontosOuro(int): void&#xa;+ getPontosOuro(): int&#xa;+ setEstado(String): void&#xa;+ getEstado(): String&#xa;+ setBuffForca(boolean): void&#xa;+ getBuffForca(): boolean&#xa;+ setBuffAgilidade(boolean): void&#xa;+ getBuffAgilidade(): boolean&#xa;+ setNerfBichada(boolean): void&#xa;+ getNerfBichada(): boolean&#xa;+ Jogador(String, short int, short int)&#xa;+ catarFruta(Fruta): boolean&#xa;+ comerFruta(Fruta): boolean&#xa;+ empurrar(Jogador): boolean&#xa;+ moverCima(): boolean&#xa;+ moverBaixo(): boolean&#xa;+ moverEsquerda(): boolean&#xa;+ moverDireita(): boolean&#xa;+ gerarPontos(): void&#xa;" style="text;strokeColor=none;fillColor=none;align=left;verticalAlign=top;spacingLeft=4;spacingRight=4;overflow=hidden;rotatable=0;points=[[0,0.5],[1,0.5]];portConstraint=eastwest;" parent="10" vertex="1">
          <mxGeometry y="148" width="260" height="342" as="geometry" />
        </mxCell>
        <mxCell id="14" value="Jogo" style="swimlane;fontStyle=1;align=center;verticalAlign=top;childLayout=stackLayout;horizontal=1;startSize=26;horizontalStack=0;resizeParent=1;resizeParentMax=0;resizeLast=0;collapsible=1;marginBottom=0;" parent="1" vertex="1">
          <mxGeometry x="760" y="700" width="180" height="236" as="geometry" />
        </mxCell>
        <mxCell id="15" value="- floresta: Terreno&#xa;- jogador1: Jogador&#xa;- jogador2: Jogador&#xa;- contadorRodada: int&#xa;- estado: String" style="text;strokeColor=none;fillColor=none;align=left;verticalAlign=top;spacingLeft=4;spacingRight=4;overflow=hidden;rotatable=0;points=[[0,0.5],[1,0.5]];portConstraint=eastwest;" parent="14" vertex="1">
          <mxGeometry y="26" width="180" height="84" as="geometry" />
        </mxCell>
        <mxCell id="16" value="" style="line;strokeWidth=1;fillColor=none;align=left;verticalAlign=middle;spacingTop=-1;spacingLeft=3;spacingRight=3;rotatable=0;labelPosition=right;points=[];portConstraint=eastwest;strokeColor=inherit;" parent="14" vertex="1">
          <mxGeometry y="110" width="180" height="8" as="geometry" />
        </mxCell>
        <mxCell id="17" value="+ Jogo(): Jogo&#xa;+ setEstado(String): void &#xa;+ getEstado(): String&#xa;+ iniciarJogo(): boolean&#xa;+ passarVez(): boolean&#xa;+ getFloresta(): Terreno&#xa;" style="text;strokeColor=none;fillColor=none;align=left;verticalAlign=top;spacingLeft=4;spacingRight=4;overflow=hidden;rotatable=0;points=[[0,0.5],[1,0.5]];portConstraint=eastwest;" parent="14" vertex="1">
          <mxGeometry y="118" width="180" height="118" as="geometry" />
        </mxCell>
        <mxCell id="18" value="Terreno" style="swimlane;fontStyle=1;align=center;verticalAlign=top;childLayout=stackLayout;horizontal=1;startSize=26;horizontalStack=0;resizeParent=1;resizeParentMax=0;resizeLast=0;collapsible=1;marginBottom=0;" parent="1" vertex="1">
          <mxGeometry x="730" y="980" width="450" height="240" as="geometry" />
        </mxCell>
        <mxCell id="19" value="- dimensao: int&#xa;- tabuleiro: Elemento[][]&#xa;- quantTipoArvores: Array&lt;int&gt;&#xa;- quantFrutasChao: Array&lt;int&gt;&#xa;- quantPedras: int&#xa;&#xa;&#xa;&#xa;&#xa;" style="text;strokeColor=none;fillColor=none;align=left;verticalAlign=top;spacingLeft=4;spacingRight=4;overflow=hidden;rotatable=0;points=[[0,0.5],[1,0.5]];portConstraint=eastwest;" parent="18" vertex="1">
          <mxGeometry y="26" width="450" height="84" as="geometry" />
        </mxCell>
        <mxCell id="20" value="" style="line;strokeWidth=1;fillColor=none;align=left;verticalAlign=middle;spacingTop=-1;spacingLeft=3;spacingRight=3;rotatable=0;labelPosition=right;points=[];portConstraint=eastwest;strokeColor=inherit;" parent="18" vertex="1">
          <mxGeometry y="110" width="450" height="8" as="geometry" />
        </mxCell>
        <mxCell id="21" value="+ Terreno(): Terreno&#xa;+ setDimensao(int): void&#xa;+ getDimensao(int): void&#xa;+ setTabuleiro(Elemento[][]): void&#xa;+ getTabuleiro(): Elemento[][]+ mudarPosicao(Elemento, int, int): boolean&#xa;+ gerarElementosAleatorios(Class&lt;T extends Elemento&gt;, int, int): boolean&#xa;+ gerarTerreno(): void&#xa;+ imprimirTerreno(): void&#xa;&#xa;" style="text;strokeColor=none;fillColor=none;align=left;verticalAlign=top;spacingLeft=4;spacingRight=4;overflow=hidden;rotatable=0;points=[[0,0.5],[1,0.5]];portConstraint=eastwest;" parent="18" vertex="1">
          <mxGeometry y="118" width="450" height="122" as="geometry" />
        </mxCell>
        <mxCell id="28" value="Maracuja" style="swimlane;fontStyle=1;align=center;verticalAlign=top;childLayout=stackLayout;horizontal=1;startSize=26;horizontalStack=0;resizeParent=1;resizeParentMax=0;resizeLast=0;collapsible=1;marginBottom=0;" parent="1" vertex="1">
          <mxGeometry x="710" y="195" width="320" height="86" as="geometry" />
        </mxCell>
        <mxCell id="29" value="+ " style="text;strokeColor=none;fillColor=none;align=left;verticalAlign=top;spacingLeft=4;spacingRight=4;overflow=hidden;rotatable=0;points=[[0,0.5],[1,0.5]];portConstraint=eastwest;" parent="28" vertex="1">
          <mxGeometry y="26" width="320" height="26" as="geometry" />
        </mxCell>
        <mxCell id="30" value="" style="line;strokeWidth=1;fillColor=none;align=left;verticalAlign=middle;spacingTop=-1;spacingLeft=3;spacingRight=3;rotatable=0;labelPosition=right;points=[];portConstraint=eastwest;strokeColor=inherit;" parent="28" vertex="1">
          <mxGeometry y="52" width="320" height="8" as="geometry" />
        </mxCell>
        <mxCell id="31" value="+ Maracuja(String, boolean, short int, short int): Maracuja" style="text;strokeColor=none;fillColor=none;align=left;verticalAlign=top;spacingLeft=4;spacingRight=4;overflow=hidden;rotatable=0;points=[[0,0.5],[1,0.5]];portConstraint=eastwest;" parent="28" vertex="1">
          <mxGeometry y="60" width="320" height="26" as="geometry" />
        </mxCell>
        <mxCell id="93" style="edgeStyle=none;html=1;entryX=1.021;entryY=0.767;entryDx=0;entryDy=0;entryPerimeter=0;" parent="1" source="32" target="3" edge="1">
          <mxGeometry relative="1" as="geometry" />
        </mxCell>
        <mxCell id="32" value="Coco" style="swimlane;fontStyle=1;align=center;verticalAlign=top;childLayout=stackLayout;horizontal=1;startSize=26;horizontalStack=0;resizeParent=1;resizeParentMax=0;resizeLast=0;collapsible=1;marginBottom=0;" parent="1" vertex="1">
          <mxGeometry x="710" y="295" width="320" height="86" as="geometry" />
        </mxCell>
        <mxCell id="33" value="+ " style="text;strokeColor=none;fillColor=none;align=left;verticalAlign=top;spacingLeft=4;spacingRight=4;overflow=hidden;rotatable=0;points=[[0,0.5],[1,0.5]];portConstraint=eastwest;" parent="32" vertex="1">
          <mxGeometry y="26" width="320" height="26" as="geometry" />
        </mxCell>
        <mxCell id="34" value="" style="line;strokeWidth=1;fillColor=none;align=left;verticalAlign=middle;spacingTop=-1;spacingLeft=3;spacingRight=3;rotatable=0;labelPosition=right;points=[];portConstraint=eastwest;strokeColor=inherit;" parent="32" vertex="1">
          <mxGeometry y="52" width="320" height="8" as="geometry" />
        </mxCell>
        <mxCell id="35" value="+ Coco(String, boolean, short int, short int): Coco" style="text;strokeColor=none;fillColor=none;align=left;verticalAlign=top;spacingLeft=4;spacingRight=4;overflow=hidden;rotatable=0;points=[[0,0.5],[1,0.5]];portConstraint=eastwest;" parent="32" vertex="1">
          <mxGeometry y="60" width="320" height="26" as="geometry" />
        </mxCell>
        <mxCell id="36" value="Abacate" style="swimlane;fontStyle=1;align=center;verticalAlign=top;childLayout=stackLayout;horizontal=1;startSize=26;horizontalStack=0;resizeParent=1;resizeParentMax=0;resizeLast=0;collapsible=1;marginBottom=0;" parent="1" vertex="1">
          <mxGeometry x="710" y="393" width="350" height="100" as="geometry" />
        </mxCell>
        <mxCell id="37" value="+ " style="text;strokeColor=none;fillColor=none;align=left;verticalAlign=top;spacingLeft=4;spacingRight=4;overflow=hidden;rotatable=0;points=[[0,0.5],[1,0.5]];portConstraint=eastwest;" parent="36" vertex="1">
          <mxGeometry y="26" width="350" height="26" as="geometry" />
        </mxCell>
        <mxCell id="38" value="" style="line;strokeWidth=1;fillColor=none;align=left;verticalAlign=middle;spacingTop=-1;spacingLeft=3;spacingRight=3;rotatable=0;labelPosition=right;points=[];portConstraint=eastwest;strokeColor=inherit;" parent="36" vertex="1">
          <mxGeometry y="52" width="350" height="8" as="geometry" />
        </mxCell>
        <mxCell id="97" value="+ Abacate(String, boolean, short int, short int): Abacate" style="text;strokeColor=none;fillColor=none;align=left;verticalAlign=top;spacingLeft=4;spacingRight=4;overflow=hidden;rotatable=0;points=[[0,0.5],[1,0.5]];portConstraint=eastwest;" parent="36" vertex="1">
          <mxGeometry y="60" width="350" height="40" as="geometry" />
        </mxCell>
        <mxCell id="40" value="Laranja" style="swimlane;fontStyle=1;align=center;verticalAlign=top;childLayout=stackLayout;horizontal=1;startSize=26;horizontalStack=0;resizeParent=1;resizeParentMax=0;resizeLast=0;collapsible=1;marginBottom=0;" parent="1" vertex="1">
          <mxGeometry x="712.5" y="510" width="337.5" height="86" as="geometry" />
        </mxCell>
        <mxCell id="41" value="+ " style="text;strokeColor=none;fillColor=none;align=left;verticalAlign=top;spacingLeft=4;spacingRight=4;overflow=hidden;rotatable=0;points=[[0,0.5],[1,0.5]];portConstraint=eastwest;" parent="40" vertex="1">
          <mxGeometry y="26" width="337.5" height="26" as="geometry" />
        </mxCell>
        <mxCell id="42" value="" style="line;strokeWidth=1;fillColor=none;align=left;verticalAlign=middle;spacingTop=-1;spacingLeft=3;spacingRight=3;rotatable=0;labelPosition=right;points=[];portConstraint=eastwest;strokeColor=inherit;" parent="40" vertex="1">
          <mxGeometry y="52" width="337.5" height="8" as="geometry" />
        </mxCell>
        <mxCell id="43" value="+ Laranja(String, boolean, short int, short int): Laranja" style="text;strokeColor=none;fillColor=none;align=left;verticalAlign=top;spacingLeft=4;spacingRight=4;overflow=hidden;rotatable=0;points=[[0,0.5],[1,0.5]];portConstraint=eastwest;" parent="40" vertex="1">
          <mxGeometry y="60" width="337.5" height="26" as="geometry" />
        </mxCell>
        <mxCell id="44" value="Pedra" style="swimlane;fontStyle=1;align=center;verticalAlign=top;childLayout=stackLayout;horizontal=1;startSize=26;horizontalStack=0;resizeParent=1;resizeParentMax=0;resizeLast=0;collapsible=1;marginBottom=0;" parent="1" vertex="1">
          <mxGeometry x="670" y="1240" width="180" height="100" as="geometry" />
        </mxCell>
        <mxCell id="45" value="+ " style="text;strokeColor=none;fillColor=none;align=left;verticalAlign=top;spacingLeft=4;spacingRight=4;overflow=hidden;rotatable=0;points=[[0,0.5],[1,0.5]];portConstraint=eastwest;" parent="44" vertex="1">
          <mxGeometry y="26" width="180" height="26" as="geometry" />
        </mxCell>
        <mxCell id="46" value="" style="line;strokeWidth=1;fillColor=none;align=left;verticalAlign=middle;spacingTop=-1;spacingLeft=3;spacingRight=3;rotatable=0;labelPosition=right;points=[];portConstraint=eastwest;strokeColor=inherit;" parent="44" vertex="1">
          <mxGeometry y="52" width="180" height="8" as="geometry" />
        </mxCell>
        <mxCell id="47" value="+ Pedra(): Pedra&#xa;+ Pedra(String, int, int): Pedra&#xa;" style="text;strokeColor=none;fillColor=none;align=left;verticalAlign=top;spacingLeft=4;spacingRight=4;overflow=hidden;rotatable=0;points=[[0,0.5],[1,0.5]];portConstraint=eastwest;" parent="44" vertex="1">
          <mxGeometry y="60" width="180" height="40" as="geometry" />
        </mxCell>
        <mxCell id="48" value="Generica" style="swimlane;fontStyle=1;align=center;verticalAlign=top;childLayout=stackLayout;horizontal=1;startSize=26;horizontalStack=0;resizeParent=1;resizeParentMax=0;resizeLast=0;collapsible=1;marginBottom=0;" parent="1" vertex="1">
          <mxGeometry x="710" y="95" width="320" height="86" as="geometry" />
        </mxCell>
        <mxCell id="49" value="+" style="text;strokeColor=none;fillColor=none;align=left;verticalAlign=top;spacingLeft=4;spacingRight=4;overflow=hidden;rotatable=0;points=[[0,0.5],[1,0.5]];portConstraint=eastwest;" parent="48" vertex="1">
          <mxGeometry y="26" width="320" height="26" as="geometry" />
        </mxCell>
        <mxCell id="50" value="" style="line;strokeWidth=1;fillColor=none;align=left;verticalAlign=middle;spacingTop=-1;spacingLeft=3;spacingRight=3;rotatable=0;labelPosition=right;points=[];portConstraint=eastwest;strokeColor=inherit;" parent="48" vertex="1">
          <mxGeometry y="52" width="320" height="8" as="geometry" />
        </mxCell>
        <mxCell id="51" value="+ Generica(String, boolean, short int, short int): Generica" style="text;strokeColor=none;fillColor=none;align=left;verticalAlign=top;spacingLeft=4;spacingRight=4;overflow=hidden;rotatable=0;points=[[0,0.5],[1,0.5]];portConstraint=eastwest;" parent="48" vertex="1">
          <mxGeometry y="60" width="320" height="26" as="geometry" />
        </mxCell>
        <mxCell id="100" style="edgeStyle=none;html=1;entryX=1;entryY=0.5;entryDx=0;entryDy=0;exitX=-0.005;exitY=0.885;exitDx=0;exitDy=0;exitPerimeter=0;" parent="1" source="53" target="7" edge="1">
          <mxGeometry relative="1" as="geometry" />
        </mxCell>
        <mxCell id="52" value="Arvore" style="swimlane;fontStyle=1;align=center;verticalAlign=top;childLayout=stackLayout;horizontal=1;startSize=26;horizontalStack=0;resizeParent=1;resizeParentMax=0;resizeLast=0;collapsible=1;marginBottom=0;" parent="1" vertex="1">
          <mxGeometry x="670" y="1350" width="320" height="160" as="geometry" />
        </mxCell>
        <mxCell id="53" value="- tipo: Class&lt;? extends Fruta&gt;" style="text;strokeColor=none;fillColor=none;align=left;verticalAlign=top;spacingLeft=4;spacingRight=4;overflow=hidden;rotatable=0;points=[[0,0.5],[1,0.5]];portConstraint=eastwest;" parent="52" vertex="1">
          <mxGeometry y="26" width="320" height="26" as="geometry" />
        </mxCell>
        <mxCell id="54" value="" style="line;strokeWidth=1;fillColor=none;align=left;verticalAlign=middle;spacingTop=-1;spacingLeft=3;spacingRight=3;rotatable=0;labelPosition=right;points=[];portConstraint=eastwest;strokeColor=inherit;" parent="52" vertex="1">
          <mxGeometry y="52" width="320" height="8" as="geometry" />
        </mxCell>
        <mxCell id="55" value="+ Arvore(): Arvore &#xa;+ Arvore(String, int, int): Arvore &#xa;+ Arvore(String, int, int, Class&lt;? extends Fruta&gt;): Arvore&#xa;+ getTipo(): Class&lt;?&gt;&#xa;+ setTipo(): Class&lt;? extends Fruta&gt; &#xa;+ derrubarFruta: Boolean&#xa;" style="text;strokeColor=none;fillColor=none;align=left;verticalAlign=top;spacingLeft=4;spacingRight=4;overflow=hidden;rotatable=0;points=[[0,0.5],[1,0.5]];portConstraint=eastwest;" parent="52" vertex="1">
          <mxGeometry y="60" width="320" height="100" as="geometry" />
        </mxCell>
        <mxCell id="56" value="Grama" style="swimlane;fontStyle=1;align=center;verticalAlign=top;childLayout=stackLayout;horizontal=1;startSize=26;horizontalStack=0;resizeParent=1;resizeParentMax=0;resizeLast=0;collapsible=1;marginBottom=0;" parent="1" vertex="1">
          <mxGeometry x="670" y="1560" width="180" height="100" as="geometry" />
        </mxCell>
        <mxCell id="57" value="+ " style="text;strokeColor=none;fillColor=none;align=left;verticalAlign=top;spacingLeft=4;spacingRight=4;overflow=hidden;rotatable=0;points=[[0,0.5],[1,0.5]];portConstraint=eastwest;" parent="56" vertex="1">
          <mxGeometry y="26" width="180" height="26" as="geometry" />
        </mxCell>
        <mxCell id="58" value="" style="line;strokeWidth=1;fillColor=none;align=left;verticalAlign=middle;spacingTop=-1;spacingLeft=3;spacingRight=3;rotatable=0;labelPosition=right;points=[];portConstraint=eastwest;strokeColor=inherit;" parent="56" vertex="1">
          <mxGeometry y="52" width="180" height="8" as="geometry" />
        </mxCell>
        <mxCell id="59" value="+ Grama(): Grama&#xa;+ Grama(String, int, int): Grama&#xa;" style="text;strokeColor=none;fillColor=none;align=left;verticalAlign=top;spacingLeft=4;spacingRight=4;overflow=hidden;rotatable=0;points=[[0,0.5],[1,0.5]];portConstraint=eastwest;" parent="56" vertex="1">
          <mxGeometry y="60" width="180" height="40" as="geometry" />
        </mxCell>
        <mxCell id="73" value="Mochila" style="swimlane;fontStyle=1;align=center;verticalAlign=top;childLayout=stackLayout;horizontal=1;startSize=26;horizontalStack=0;resizeParent=1;resizeParentMax=0;resizeLast=0;collapsible=1;marginBottom=0;" parent="1" vertex="1">
          <mxGeometry x="385" y="430" width="210" height="210" as="geometry" />
        </mxCell>
        <mxCell id="74" value="- frutas: Array&lt;Fruta&gt;&#xa;- capacidade: short int&#xa;- quantFrutas: short int" style="text;strokeColor=none;fillColor=none;align=left;verticalAlign=top;spacingLeft=4;spacingRight=4;overflow=hidden;rotatable=0;points=[[0,0.5],[1,0.5]];portConstraint=eastwest;" parent="73" vertex="1">
          <mxGeometry y="26" width="210" height="64" as="geometry" />
        </mxCell>
        <mxCell id="75" value="" style="line;strokeWidth=1;fillColor=none;align=left;verticalAlign=middle;spacingTop=-1;spacingLeft=3;spacingRight=3;rotatable=0;labelPosition=right;points=[];portConstraint=eastwest;strokeColor=inherit;" parent="73" vertex="1">
          <mxGeometry y="90" width="210" height="8" as="geometry" />
        </mxCell>
        <mxCell id="76" value="+ Mochila(): Mochila&#xa;+ setQuantFrutas(int): void&#xa;+ getQuantFrutas(): int &#xa;+ setCapacidade(int): void &#xa;+ getCapacidade(): int&#xa;+ removerFruta(String): boolean&#xa;+ adicionarFruta(String): boolean" style="text;strokeColor=none;fillColor=none;align=left;verticalAlign=top;spacingLeft=4;spacingRight=4;overflow=hidden;rotatable=0;points=[[0,0.5],[1,0.5]];portConstraint=eastwest;" parent="73" vertex="1">
          <mxGeometry y="98" width="210" height="112" as="geometry" />
        </mxCell>
        <mxCell id="89" value="Elemento" style="swimlane;fontStyle=3;align=center;verticalAlign=top;childLayout=stackLayout;horizontal=1;startSize=26;horizontalStack=0;resizeParent=1;resizeParentMax=0;resizeLast=0;collapsible=1;marginBottom=0;" parent="1" vertex="1">
          <mxGeometry x="20" y="810" width="270" height="200" as="geometry" />
        </mxCell>
        <mxCell id="90" value="# nome: String&#xa;# posicaoX: int&#xa;# posicaoY: int" style="text;strokeColor=none;fillColor=none;align=left;verticalAlign=top;spacingLeft=4;spacingRight=4;overflow=hidden;rotatable=0;points=[[0,0.5],[1,0.5]];portConstraint=eastwest;" parent="89" vertex="1">
          <mxGeometry y="26" width="270" height="64" as="geometry" />
        </mxCell>
        <mxCell id="91" value="" style="line;strokeWidth=1;fillColor=none;align=left;verticalAlign=middle;spacingTop=-1;spacingLeft=3;spacingRight=3;rotatable=0;labelPosition=right;points=[];portConstraint=eastwest;strokeColor=inherit;" parent="89" vertex="1">
          <mxGeometry y="90" width="270" height="8" as="geometry" />
        </mxCell>
        <mxCell id="92" value="+ setNome(String): void&#xa;+ getNome(): String&#xa;+ setPosicaoX(int): void &#xa;+ getPosicaoX(): int&#xa;+ setPosicaoY(int): void&#xa;+ getPosicaoY(): int" style="text;strokeColor=none;fillColor=none;align=left;verticalAlign=top;spacingLeft=4;spacingRight=4;overflow=hidden;rotatable=0;points=[[0,0.5],[1,0.5]];portConstraint=eastwest;" parent="89" vertex="1">
          <mxGeometry y="98" width="270" height="102" as="geometry" />
        </mxCell>
        <mxCell id="94" value="" style="endArrow=none;html=1;" parent="1" edge="1">
          <mxGeometry width="50" height="50" relative="1" as="geometry">
            <mxPoint x="640" y="550" as="sourcePoint" />
            <mxPoint x="640" y="140" as="targetPoint" />
          </mxGeometry>
        </mxCell>
        <mxCell id="95" value="" style="endArrow=none;html=1;entryX=0;entryY=0.5;entryDx=0;entryDy=0;" parent="1" target="41" edge="1">
          <mxGeometry width="50" height="50" relative="1" as="geometry">
            <mxPoint x="640" y="550" as="sourcePoint" />
            <mxPoint x="720" y="600" as="targetPoint" />
          </mxGeometry>
        </mxCell>
        <mxCell id="96" value="" style="endArrow=none;html=1;entryX=-0.012;entryY=1.038;entryDx=0;entryDy=0;entryPerimeter=0;" parent="1" target="37" edge="1">
          <mxGeometry width="50" height="50" relative="1" as="geometry">
            <mxPoint x="640" y="446" as="sourcePoint" />
            <mxPoint x="690" y="396" as="targetPoint" />
          </mxGeometry>
        </mxCell>
        <mxCell id="98" value="" style="endArrow=none;html=1;" parent="1" edge="1">
          <mxGeometry width="50" height="50" relative="1" as="geometry">
            <mxPoint x="640" y="240" as="sourcePoint" />
            <mxPoint x="710" y="240" as="targetPoint" />
          </mxGeometry>
        </mxCell>
        <mxCell id="99" value="" style="endArrow=none;html=1;entryX=-0.006;entryY=0.769;entryDx=0;entryDy=0;entryPerimeter=0;" parent="1" target="49" edge="1">
          <mxGeometry width="50" height="50" relative="1" as="geometry">
            <mxPoint x="640" y="140" as="sourcePoint" />
            <mxPoint x="700" y="140" as="targetPoint" />
          </mxGeometry>
        </mxCell>
        <mxCell id="101" value="" style="endArrow=none;html=1;" parent="1" edge="1">
          <mxGeometry width="50" height="50" relative="1" as="geometry">
            <mxPoint x="610" y="1600" as="sourcePoint" />
            <mxPoint x="610" y="1280" as="targetPoint" />
          </mxGeometry>
        </mxCell>
        <mxCell id="102" value="" style="endArrow=none;html=1;entryX=0;entryY=0.5;entryDx=0;entryDy=0;" parent="1" target="57" edge="1">
          <mxGeometry width="50" height="50" relative="1" as="geometry">
            <mxPoint x="610" y="1600" as="sourcePoint" />
            <mxPoint x="660" y="1480" as="targetPoint" />
          </mxGeometry>
        </mxCell>
        <mxCell id="104" value="" style="endArrow=none;html=1;entryX=0;entryY=0.5;entryDx=0;entryDy=0;" parent="1" target="45" edge="1">
          <mxGeometry width="50" height="50" relative="1" as="geometry">
            <mxPoint x="610" y="1280" as="sourcePoint" />
            <mxPoint x="660" y="1230" as="targetPoint" />
          </mxGeometry>
        </mxCell>
        <mxCell id="111" value="" style="rhombus;whiteSpace=wrap;html=1;fillColor=#000000;fontColor=#333333;strokeColor=#666666;" parent="1" vertex="1">
          <mxGeometry x="480" y="680" width="20" height="20" as="geometry" />
        </mxCell>
        <mxCell id="112" value="" style="endArrow=none;html=1;" parent="1" edge="1">
          <mxGeometry width="50" height="50" relative="1" as="geometry">
            <mxPoint x="490" y="680" as="sourcePoint" />
            <mxPoint x="490" y="640" as="targetPoint" />
            <Array as="points" />
          </mxGeometry>
        </mxCell>
        <mxCell id="121" value="" style="endArrow=none;html=1;exitX=0.268;exitY=0.008;exitDx=0;exitDy=0;exitPerimeter=0;" parent="1" source="120" edge="1">
          <mxGeometry width="50" height="50" relative="1" as="geometry">
            <mxPoint x="800" y="990" as="sourcePoint" />
            <mxPoint x="850" y="940" as="targetPoint" />
          </mxGeometry>
        </mxCell>
        <mxCell id="124" value="" style="endArrow=none;html=1;entryX=0;entryY=0.5;entryDx=0;entryDy=0;" parent="1" target="125" edge="1">
          <mxGeometry width="50" height="50" relative="1" as="geometry">
            <mxPoint x="660" y="800" as="sourcePoint" />
            <mxPoint x="720" y="800" as="targetPoint" />
          </mxGeometry>
        </mxCell>
        <mxCell id="125" value="" style="rhombus;whiteSpace=wrap;html=1;fillColor=#000000;fontColor=#333333;strokeColor=#666666;" parent="1" vertex="1">
          <mxGeometry x="740" y="790" width="20" height="20" as="geometry" />
        </mxCell>
        <mxCell id="128" value="" style="endArrow=none;html=1;" parent="1" edge="1">
          <mxGeometry width="50" height="50" relative="1" as="geometry">
            <mxPoint x="1260" y="1490" as="sourcePoint" />
            <mxPoint x="1260" y="70" as="targetPoint" />
          </mxGeometry>
        </mxCell>
        <mxCell id="131" value="" style="endArrow=none;html=1;entryX=0;entryY=0.5;entryDx=0;entryDy=0;" parent="1" edge="1" target="133">
          <mxGeometry width="50" height="50" relative="1" as="geometry">
            <mxPoint x="160" y="1210" as="sourcePoint" />
            <mxPoint x="860" y="1226" as="targetPoint" />
          </mxGeometry>
        </mxCell>
        <mxCell id="132" value="" style="endArrow=none;html=1;entryX=0.522;entryY=1.01;entryDx=0;entryDy=0;entryPerimeter=0;" parent="1" target="92" edge="1">
          <mxGeometry width="50" height="50" relative="1" as="geometry">
            <mxPoint x="161" y="1210" as="sourcePoint" />
            <mxPoint x="170" y="1060" as="targetPoint" />
          </mxGeometry>
        </mxCell>
        <mxCell id="133" value="" style="rhombus;whiteSpace=wrap;html=1;fillColor=#f5f5f5;fontColor=#333333;strokeColor=#666666;" parent="1" vertex="1">
          <mxGeometry x="710" y="1200" width="20" height="20" as="geometry" />
        </mxCell>
        <mxCell id="142" value="" style="endArrow=classic;html=1;" parent="1" edge="1">
          <mxGeometry width="50" height="50" relative="1" as="geometry">
            <mxPoint x="120" y="1400" as="sourcePoint" />
            <mxPoint x="120" y="1010" as="targetPoint" />
          </mxGeometry>
        </mxCell>
        <mxCell id="143" value="" style="endArrow=none;html=1;entryX=0;entryY=0.5;entryDx=0;entryDy=0;" parent="1" target="7" edge="1">
          <mxGeometry width="50" height="50" relative="1" as="geometry">
            <mxPoint x="120" y="1400" as="sourcePoint" />
            <mxPoint x="170" y="1350" as="targetPoint" />
          </mxGeometry>
        </mxCell>
        <mxCell id="127" value="" style="endArrow=none;html=1;" parent="1" edge="1">
          <mxGeometry width="50" height="50" relative="1" as="geometry">
            <mxPoint x="990" y="1490" as="sourcePoint" />
            <mxPoint x="1260" y="1490" as="targetPoint" />
          </mxGeometry>
        </mxCell>
        <mxCell id="144" value="" style="endArrow=none;html=1;" parent="1" edge="1">
          <mxGeometry width="50" height="50" relative="1" as="geometry">
            <mxPoint x="485" y="70" as="sourcePoint" />
            <mxPoint x="1255" y="70" as="targetPoint" />
          </mxGeometry>
        </mxCell>
        <mxCell id="145" value="" style="endArrow=none;html=1;exitX=0.5;exitY=0;exitDx=0;exitDy=0;" parent="1" source="2" edge="1">
          <mxGeometry width="50" height="50" relative="1" as="geometry">
            <mxPoint x="440" y="80" as="sourcePoint" />
            <mxPoint x="490" y="70" as="targetPoint" />
          </mxGeometry>
        </mxCell>
        <mxCell id="146" value="" style="endArrow=none;html=1;" parent="1" edge="1">
          <mxGeometry width="50" height="50" relative="1" as="geometry">
            <mxPoint x="320" y="770" as="sourcePoint" />
            <mxPoint x="390" y="770" as="targetPoint" />
          </mxGeometry>
        </mxCell>
        <mxCell id="147" value="" style="endArrow=none;html=1;" parent="1" edge="1">
          <mxGeometry width="50" height="50" relative="1" as="geometry">
            <mxPoint x="320" y="770" as="sourcePoint" />
            <mxPoint x="320" y="340" as="targetPoint" />
          </mxGeometry>
        </mxCell>
        <mxCell id="148" value="" style="endArrow=none;html=1;entryX=-0.011;entryY=0.9;entryDx=0;entryDy=0;entryPerimeter=0;" parent="1" target="3" edge="1">
          <mxGeometry width="50" height="50" relative="1" as="geometry">
            <mxPoint x="320" y="340" as="sourcePoint" />
            <mxPoint x="390" y="340" as="targetPoint" />
          </mxGeometry>
        </mxCell>
        <mxCell id="149" value="" style="endArrow=none;html=1;" parent="1" edge="1">
          <mxGeometry width="50" height="50" relative="1" as="geometry">
            <mxPoint x="150" y="313" as="sourcePoint" />
            <mxPoint x="395" y="313" as="targetPoint" />
          </mxGeometry>
        </mxCell>
        <mxCell id="150" value="" style="endArrow=classic;html=1;entryX=0.467;entryY=0.005;entryDx=0;entryDy=0;entryPerimeter=0;" parent="1" target="89" edge="1">
          <mxGeometry width="50" height="50" relative="1" as="geometry">
            <mxPoint x="150" y="310" as="sourcePoint" />
            <mxPoint x="200" y="260" as="targetPoint" />
          </mxGeometry>
        </mxCell>
        <mxCell id="156" value="Essa classe vai ser responsável&lt;br&gt;por fazer a herança das classes que serão usadas no tabuleiro do jogo" style="shape=note;size=20;whiteSpace=wrap;html=1;" parent="1" vertex="1">
          <mxGeometry x="35" y="170" width="240" height="106" as="geometry" />
        </mxCell>
        <mxCell id="159" value="Esta classe e seus filhos representam todos as frutas e seus efeitos no player" style="shape=note;size=20;whiteSpace=wrap;html=1;" parent="1" vertex="1">
          <mxGeometry x="510" y="110" width="100" height="100" as="geometry" />
        </mxCell>
        <mxCell id="160" value="Esta classe serve para controlar todo o ambiente do jogo. É aqui onde a realmente partida acontece" style="shape=note;size=20;whiteSpace=wrap;html=1;" parent="1" vertex="1">
          <mxGeometry x="1280" y="980" width="120" height="120" as="geometry" />
        </mxCell>
        <mxCell id="161" value="Essa classe não tem muita serventia agora mas cremos que terá no futuro&amp;nbsp;" style="shape=note;size=20;whiteSpace=wrap;html=1;" parent="1" vertex="1">
          <mxGeometry x="485" y="1220" width="100" height="100" as="geometry" />
        </mxCell>
        <mxCell id="163" value="Representa as pedras no tabuleiro que fará o player gastar mais ponto se quiser mover por ela" style="shape=note;size=20;whiteSpace=wrap;html=1;" parent="1" vertex="1">
          <mxGeometry x="920" y="1230" width="150" height="100" as="geometry" />
        </mxCell>
        <mxCell id="165" value="Essa aqui representará&amp;nbsp; as árvores que darão frutas pro jogador" style="shape=note;size=20;whiteSpace=wrap;html=1;" parent="1" vertex="1">
          <mxGeometry x="1060" y="1346" width="100" height="100" as="geometry" />
        </mxCell>
        <mxCell id="166" value="" style="endArrow=none;dashed=1;html=1;dashPattern=1 3;strokeWidth=2;entryX=0;entryY=0.5;entryDx=0;entryDy=0;entryPerimeter=0;exitX=1.017;exitY=-0.075;exitDx=0;exitDy=0;exitPerimeter=0;" parent="1" target="163" edge="1" source="47">
          <mxGeometry width="50" height="50" relative="1" as="geometry">
            <mxPoint x="830" y="1290" as="sourcePoint" />
            <mxPoint x="880" y="1240" as="targetPoint" />
          </mxGeometry>
        </mxCell>
        <mxCell id="167" value="" style="endArrow=none;dashed=1;html=1;dashPattern=1 3;strokeWidth=2;entryX=0;entryY=0.5;entryDx=0;entryDy=0;entryPerimeter=0;exitX=1.01;exitY=0.885;exitDx=0;exitDy=0;exitPerimeter=0;" parent="1" target="165" edge="1" source="53">
          <mxGeometry width="50" height="50" relative="1" as="geometry">
            <mxPoint x="890" y="1410" as="sourcePoint" />
            <mxPoint x="880" y="1360" as="targetPoint" />
          </mxGeometry>
        </mxCell>
        <mxCell id="168" value="" style="endArrow=none;dashed=1;html=1;dashPattern=1 3;strokeWidth=2;entryX=0.326;entryY=0.004;entryDx=0;entryDy=0;entryPerimeter=0;" parent="1" edge="1" target="89">
          <mxGeometry width="50" height="50" relative="1" as="geometry">
            <mxPoint x="108" y="280" as="sourcePoint" />
            <mxPoint x="80" y="1010" as="targetPoint" />
          </mxGeometry>
        </mxCell>
        <mxCell id="170" value="" style="endArrow=none;dashed=1;html=1;dashPattern=1 3;strokeWidth=2;entryX=-0.04;entryY=0.4;entryDx=0;entryDy=0;entryPerimeter=0;exitX=1.004;exitY=0.241;exitDx=0;exitDy=0;exitPerimeter=0;" parent="1" source="19" target="160" edge="1">
          <mxGeometry width="50" height="50" relative="1" as="geometry">
            <mxPoint x="940" y="910" as="sourcePoint" />
            <mxPoint x="990" y="860" as="targetPoint" />
          </mxGeometry>
        </mxCell>
        <mxCell id="171" value="" style="endArrow=none;dashed=1;html=1;dashPattern=1 3;strokeWidth=2;exitX=1;exitY=0.5;exitDx=0;exitDy=0;" parent="1" edge="1" source="57">
          <mxGeometry width="50" height="50" relative="1" as="geometry">
            <mxPoint x="830" y="1603" as="sourcePoint" />
            <mxPoint x="910" y="1603" as="targetPoint" />
          </mxGeometry>
        </mxCell>
        <mxCell id="172" value="Grama representa espaço vazio no tabuleiro" style="shape=note;size=20;whiteSpace=wrap;html=1;" parent="1" vertex="1">
          <mxGeometry x="910" y="1546" width="100" height="100" as="geometry" />
        </mxCell>
        <mxCell id="178" value="" style="endArrow=none;dashed=1;html=1;dashPattern=1 3;strokeWidth=2;entryX=-0.012;entryY=0.386;entryDx=0;entryDy=0;entryPerimeter=0;" parent="1" edge="1" target="179">
          <mxGeometry width="50" height="50" relative="1" as="geometry">
            <mxPoint x="940" y="720" as="sourcePoint" />
            <mxPoint x="1070" y="650" as="targetPoint" />
          </mxGeometry>
        </mxCell>
        <mxCell id="179" value="Esta classe serve como classe principal, tudo se liga aqui de alguma forma. Aqui é onde tudo do jogo é controlado" style="shape=note;size=20;whiteSpace=wrap;html=1;" parent="1" vertex="1">
          <mxGeometry x="1020" y="670" width="150" height="120" as="geometry" />
        </mxCell>
        <mxCell id="180" value="" style="endArrow=none;dashed=1;html=1;dashPattern=1 3;strokeWidth=2;" parent="1" edge="1">
          <mxGeometry width="50" height="50" relative="1" as="geometry">
            <mxPoint x="270" y="530" as="sourcePoint" />
            <mxPoint x="390" y="530" as="targetPoint" />
          </mxGeometry>
        </mxCell>
        <mxCell id="181" value="Classe responsável tem a funcinalidade de guardar as frutas. Cada jogador terá uma dessa&amp;nbsp;" style="shape=note;size=20;whiteSpace=wrap;html=1;" parent="1" vertex="1">
          <mxGeometry x="160" y="460" width="110" height="114" as="geometry" />
        </mxCell>
        <mxCell id="182" value="" style="endArrow=none;dashed=1;html=1;dashPattern=1 3;strokeWidth=2;entryX=0.112;entryY=1.003;entryDx=0;entryDy=0;entryPerimeter=0;" parent="1" edge="1" target="13">
          <mxGeometry width="50" height="50" relative="1" as="geometry">
            <mxPoint x="400" y="1220" as="sourcePoint" />
            <mxPoint x="420" y="1170" as="targetPoint" />
          </mxGeometry>
        </mxCell>
        <mxCell id="183" value="Aqui onde todas as ações de cada jogador são controladas" style="shape=note;size=20;whiteSpace=wrap;html=1;" parent="1" vertex="1">
          <mxGeometry x="340" y="1226" width="100" height="100" as="geometry" />
        </mxCell>
        <mxCell id="185" value="" style="endArrow=none;dashed=1;html=1;dashPattern=1 3;strokeWidth=2;entryX=0.5;entryY=1;entryDx=0;entryDy=0;entryPerimeter=0;" parent="1" target="159" edge="1">
          <mxGeometry width="50" height="50" relative="1" as="geometry">
            <mxPoint x="560" y="280" as="sourcePoint" />
            <mxPoint x="610" y="240" as="targetPoint" />
          </mxGeometry>
        </mxCell>
        <mxCell id="186" value="" style="endArrow=none;dashed=1;html=1;dashPattern=1 3;strokeWidth=2;exitX=1;exitY=0.5;exitDx=0;exitDy=0;" parent="1" edge="1" source="41">
          <mxGeometry width="50" height="50" relative="1" as="geometry">
            <mxPoint x="1030" y="540" as="sourcePoint" />
            <mxPoint x="1130" y="400" as="targetPoint" />
          </mxGeometry>
        </mxCell>
        <mxCell id="187" value="Estas são as classes de cada fruta especial" style="shape=note;size=20;whiteSpace=wrap;html=1;" parent="1" vertex="1">
          <mxGeometry x="1130" y="295" width="100" height="100" as="geometry" />
        </mxCell>
        <mxCell id="188" value="" style="endArrow=none;dashed=1;html=1;dashPattern=1 3;strokeWidth=2;entryX=0;entryY=0.75;entryDx=0;entryDy=0;entryPerimeter=0;exitX=1;exitY=0.5;exitDx=0;exitDy=0;" parent="1" target="187" edge="1" source="37">
          <mxGeometry width="50" height="50" relative="1" as="geometry">
            <mxPoint x="1030" y="430" as="sourcePoint" />
            <mxPoint x="1080" y="380" as="targetPoint" />
          </mxGeometry>
        </mxCell>
        <mxCell id="189" value="" style="endArrow=none;dashed=1;html=1;dashPattern=1 3;strokeWidth=2;entryX=0;entryY=0.5;entryDx=0;entryDy=0;entryPerimeter=0;" parent="1" target="187" edge="1">
          <mxGeometry width="50" height="50" relative="1" as="geometry">
            <mxPoint x="1030" y="340" as="sourcePoint" />
            <mxPoint x="1080" y="290" as="targetPoint" />
          </mxGeometry>
        </mxCell>
        <mxCell id="190" value="" style="endArrow=none;dashed=1;html=1;dashPattern=1 3;strokeWidth=2;entryX=-0.05;entryY=0.16;entryDx=0;entryDy=0;entryPerimeter=0;" parent="1" target="187" edge="1">
          <mxGeometry width="50" height="50" relative="1" as="geometry">
            <mxPoint x="1030" y="240" as="sourcePoint" />
            <mxPoint x="1080" y="190" as="targetPoint" />
          </mxGeometry>
        </mxCell>
        <mxCell id="191" value="Fruta generica servirá para implementar as frutas sem efeito especial sendo elas a amora, goiaba e acerola" style="shape=note;size=20;whiteSpace=wrap;html=1;" parent="1" vertex="1">
          <mxGeometry x="1090" y="140" width="170" height="121" as="geometry" />
        </mxCell>
        <mxCell id="192" value="" style="endArrow=none;dashed=1;html=1;dashPattern=1 3;strokeWidth=2;" parent="1" edge="1">
          <mxGeometry width="50" height="50" relative="1" as="geometry">
            <mxPoint x="1030" y="150" as="sourcePoint" />
            <mxPoint x="1080" y="170" as="targetPoint" />
          </mxGeometry>
        </mxCell>
        <mxCell id="O7U8BIE5OUKYXOauDH32-192" value="GerenciadorArquivo" style="swimlane;fontStyle=1;align=center;verticalAlign=top;childLayout=stackLayout;horizontal=1;startSize=26;horizontalStack=0;resizeParent=1;resizeParentMax=0;resizeLast=0;collapsible=1;marginBottom=0;whiteSpace=wrap;html=1;" vertex="1" parent="1">
          <mxGeometry x="1300" y="55" width="330" height="240" as="geometry" />
        </mxCell>
        <mxCell id="O7U8BIE5OUKYXOauDH32-193" value="&lt;div&gt;+ caminhoPadrao: String&lt;/div&gt;&lt;div&gt;+ arquivoAtual: File&lt;/div&gt;&lt;div&gt;- QTD_TIPOS_DE_FRUTAS: int&lt;/div&gt;&lt;div&gt;- INFO_POR_FRUTA: int&lt;br&gt;&lt;/div&gt;" style="text;strokeColor=none;fillColor=none;align=left;verticalAlign=top;spacingLeft=4;spacingRight=4;overflow=hidden;rotatable=0;points=[[0,0.5],[1,0.5]];portConstraint=eastwest;whiteSpace=wrap;html=1;" vertex="1" parent="O7U8BIE5OUKYXOauDH32-192">
          <mxGeometry y="26" width="330" height="64" as="geometry" />
        </mxCell>
        <mxCell id="O7U8BIE5OUKYXOauDH32-194" value="" style="line;strokeWidth=1;fillColor=none;align=left;verticalAlign=middle;spacingTop=-1;spacingLeft=3;spacingRight=3;rotatable=0;labelPosition=right;points=[];portConstraint=eastwest;strokeColor=inherit;" vertex="1" parent="O7U8BIE5OUKYXOauDH32-192">
          <mxGeometry y="90" width="330" height="8" as="geometry" />
        </mxCell>
        <mxCell id="O7U8BIE5OUKYXOauDH32-195" value="&lt;div&gt;+ GerenciadorArquivo(String): GerenciadorArquivo&lt;br&gt;&lt;/div&gt;&lt;div&gt;- pegarLinha(int): String&lt;/div&gt;&lt;div&gt;- pegarValAtributo(int): int&lt;/div&gt;&lt;div&gt;+ pegarDimensao(): int&lt;/div&gt;&lt;div&gt;+ pegarQtdPedras(): int&lt;/div&gt;&lt;div&gt;+ pegarFrutas(): int[][]&lt;/div&gt;&lt;div&gt;+ pegarChanceBichadas(): int&lt;/div&gt;&lt;div&gt;+ pegarEspacoMochila(): int&lt;/div&gt;&lt;div&gt;+ salvarNovasConfiguracoes(int, int, int[][], int, int): boolean&lt;/div&gt;&lt;div&gt;&lt;br&gt;&lt;/div&gt;&lt;div&gt;&lt;br&gt;&lt;/div&gt;" style="text;strokeColor=none;fillColor=none;align=left;verticalAlign=top;spacingLeft=4;spacingRight=4;overflow=hidden;rotatable=0;points=[[0,0.5],[1,0.5]];portConstraint=eastwest;whiteSpace=wrap;html=1;" vertex="1" parent="O7U8BIE5OUKYXOauDH32-192">
          <mxGeometry y="98" width="330" height="142" as="geometry" />
        </mxCell>
        <mxCell id="O7U8BIE5OUKYXOauDH32-197" value="" style="endArrow=none;html=1;rounded=0;" edge="1" parent="1">
          <mxGeometry width="50" height="50" relative="1" as="geometry">
            <mxPoint x="600" y="630" as="sourcePoint" />
            <mxPoint x="1320" y="630" as="targetPoint" />
          </mxGeometry>
        </mxCell>
        <mxCell id="O7U8BIE5OUKYXOauDH32-198" value="" style="endArrow=none;html=1;rounded=0;entryX=0.062;entryY=1.015;entryDx=0;entryDy=0;entryPerimeter=0;" edge="1" parent="1" target="O7U8BIE5OUKYXOauDH32-195">
          <mxGeometry width="50" height="50" relative="1" as="geometry">
            <mxPoint x="1320" y="630" as="sourcePoint" />
            <mxPoint x="1450" y="320" as="targetPoint" />
          </mxGeometry>
        </mxCell>
        <mxCell id="O7U8BIE5OUKYXOauDH32-202" value="" style="rhombus;whiteSpace=wrap;html=1;fillColor=#f5f5f5;fontColor=#333333;strokeColor=#666666;" vertex="1" parent="1">
          <mxGeometry x="480" y="410" width="20" height="20" as="geometry" />
        </mxCell>
        <mxCell id="O7U8BIE5OUKYXOauDH32-208" value="" style="endArrow=none;html=1;exitX=0.268;exitY=0.008;exitDx=0;exitDy=0;exitPerimeter=0;" edge="1" parent="1" source="18" target="120">
          <mxGeometry width="50" height="50" relative="1" as="geometry">
            <mxPoint x="851" y="982" as="sourcePoint" />
            <mxPoint x="850" y="940" as="targetPoint" />
          </mxGeometry>
        </mxCell>
        <mxCell id="120" value="" style="rhombus;whiteSpace=wrap;html=1;fillColor=#000000;fontColor=#333333;strokeColor=#666666;" parent="1" vertex="1">
          <mxGeometry x="840" y="935" width="20" height="20" as="geometry" />
        </mxCell>
        <mxCell id="O7U8BIE5OUKYXOauDH32-210" value="" style="endArrow=none;html=1;rounded=0;" edge="1" parent="1">
          <mxGeometry width="50" height="50" relative="1" as="geometry">
            <mxPoint x="1320" y="910" as="sourcePoint" />
            <mxPoint x="1320" y="630" as="targetPoint" />
          </mxGeometry>
        </mxCell>
        <mxCell id="O7U8BIE5OUKYXOauDH32-211" value="" style="endArrow=none;html=1;rounded=0;" edge="1" parent="1">
          <mxGeometry width="50" height="50" relative="1" as="geometry">
            <mxPoint x="1080" y="909.17" as="sourcePoint" />
            <mxPoint x="1320" y="910" as="targetPoint" />
          </mxGeometry>
        </mxCell>
        <mxCell id="O7U8BIE5OUKYXOauDH32-213" value="" style="endArrow=none;html=1;rounded=0;exitX=0.775;exitY=-0.015;exitDx=0;exitDy=0;exitPerimeter=0;" edge="1" parent="1" source="18">
          <mxGeometry width="50" height="50" relative="1" as="geometry">
            <mxPoint x="1030" y="960" as="sourcePoint" />
            <mxPoint x="1080" y="910" as="targetPoint" />
          </mxGeometry>
        </mxCell>
        <mxCell id="O7U8BIE5OUKYXOauDH32-215" value="" style="endArrow=none;html=1;rounded=0;" edge="1" parent="1">
          <mxGeometry width="50" height="50" relative="1" as="geometry">
            <mxPoint x="1470" y="50" as="sourcePoint" />
            <mxPoint x="1470" y="30" as="targetPoint" />
          </mxGeometry>
        </mxCell>
        <mxCell id="O7U8BIE5OUKYXOauDH32-216" value="" style="endArrow=none;html=1;rounded=0;" edge="1" parent="1">
          <mxGeometry width="50" height="50" relative="1" as="geometry">
            <mxPoint x="440" y="30" as="sourcePoint" />
            <mxPoint x="1470" y="30" as="targetPoint" />
          </mxGeometry>
        </mxCell>
        <mxCell id="O7U8BIE5OUKYXOauDH32-217" value="" style="endArrow=none;html=1;rounded=0;exitX=0.25;exitY=0;exitDx=0;exitDy=0;" edge="1" parent="1" source="2">
          <mxGeometry width="50" height="50" relative="1" as="geometry">
            <mxPoint x="390" y="20" as="sourcePoint" />
            <mxPoint x="440" y="30" as="targetPoint" />
          </mxGeometry>
        </mxCell>
        <mxCell id="O7U8BIE5OUKYXOauDH32-229" value="Extras" style="swimlane;fontStyle=1;align=center;verticalAlign=top;childLayout=stackLayout;horizontal=1;startSize=26;horizontalStack=0;resizeParent=1;resizeParentMax=0;resizeLast=0;collapsible=1;marginBottom=0;whiteSpace=wrap;html=1;" vertex="1" parent="1">
          <mxGeometry x="1310" y="1120" width="180" height="120" as="geometry" />
        </mxCell>
        <mxCell id="O7U8BIE5OUKYXOauDH32-230" value="+ " style="text;strokeColor=none;fillColor=none;align=left;verticalAlign=top;spacingLeft=4;spacingRight=4;overflow=hidden;rotatable=0;points=[[0,0.5],[1,0.5]];portConstraint=eastwest;whiteSpace=wrap;html=1;" vertex="1" parent="O7U8BIE5OUKYXOauDH32-229">
          <mxGeometry y="26" width="180" height="26" as="geometry" />
        </mxCell>
        <mxCell id="O7U8BIE5OUKYXOauDH32-231" value="" style="line;strokeWidth=1;fillColor=none;align=left;verticalAlign=middle;spacingTop=-1;spacingLeft=3;spacingRight=3;rotatable=0;labelPosition=right;points=[];portConstraint=eastwest;strokeColor=inherit;" vertex="1" parent="O7U8BIE5OUKYXOauDH32-229">
          <mxGeometry y="52" width="180" height="8" as="geometry" />
        </mxCell>
        <mxCell id="O7U8BIE5OUKYXOauDH32-232" value="&lt;div&gt;+ colunaMatriz(int[][], int): int[]&lt;/div&gt;&lt;div&gt;+ somarVetor(int[]): int&lt;/div&gt;&lt;div&gt;+ embaralharVetor(T[]): &amp;lt;T&amp;gt; T[]&lt;br&gt;&lt;/div&gt;" style="text;strokeColor=none;fillColor=none;align=left;verticalAlign=top;spacingLeft=4;spacingRight=4;overflow=hidden;rotatable=0;points=[[0,0.5],[1,0.5]];portConstraint=eastwest;whiteSpace=wrap;html=1;" vertex="1" parent="O7U8BIE5OUKYXOauDH32-229">
          <mxGeometry y="60" width="180" height="60" as="geometry" />
        </mxCell>
        <mxCell id="O7U8BIE5OUKYXOauDH32-233" value="" style="endArrow=none;html=1;rounded=0;exitX=1;exitY=0.5;exitDx=0;exitDy=0;" edge="1" parent="1" source="21">
          <mxGeometry width="50" height="50" relative="1" as="geometry">
            <mxPoint x="1260" y="1210" as="sourcePoint" />
            <mxPoint x="1310" y="1160" as="targetPoint" />
          </mxGeometry>
        </mxCell>
        <mxCell id="O7U8BIE5OUKYXOauDH32-235" value="Esta classe é responsável por lidar com o arquivo de configuração do terreno" style="shape=note;size=20;whiteSpace=wrap;html=1;" vertex="1" parent="1">
          <mxGeometry x="1340" y="410" width="100" height="100" as="geometry" />
        </mxCell>
        <mxCell id="O7U8BIE5OUKYXOauDH32-236" value="" style="endArrow=none;dashed=1;html=1;dashPattern=1 3;strokeWidth=2;rounded=0;entryX=0.264;entryY=1.01;entryDx=0;entryDy=0;entryPerimeter=0;" edge="1" parent="1" target="O7U8BIE5OUKYXOauDH32-195">
          <mxGeometry width="50" height="50" relative="1" as="geometry">
            <mxPoint x="1390" y="410" as="sourcePoint" />
            <mxPoint x="1440" y="360" as="targetPoint" />
          </mxGeometry>
        </mxCell>
        <mxCell id="O7U8BIE5OUKYXOauDH32-237" value="" style="endArrow=none;dashed=1;html=1;dashPattern=1 3;strokeWidth=2;rounded=0;" edge="1" parent="1">
          <mxGeometry width="50" height="50" relative="1" as="geometry">
            <mxPoint x="1400" y="1300" as="sourcePoint" />
            <mxPoint x="1400" y="1240" as="targetPoint" />
          </mxGeometry>
        </mxCell>
        <mxCell id="O7U8BIE5OUKYXOauDH32-238" value="Esta classe tem como função armazenar funções estáticas que servem de utilidade para outras classes" style="shape=note;size=20;whiteSpace=wrap;html=1;" vertex="1" parent="1">
          <mxGeometry x="1335" y="1300" width="130" height="140" as="geometry" />
        </mxCell>
      </root>
    </mxGraphModel>
  </diagram>
</mxfile>
